<svg xmlns="http://www.w3.org/2000/svg" id="Layer_1" enable-background="new 0 0 64 64" viewBox="0 0 64 64"><g id="XMLID_1527_"><g id="XMLID_1525_"><path id="XMLID_1880_" fill="#fff" d="M5.408,14.682L30.202,0.478c1.114-0.638,2.482-0.638,3.596,0l24.794,14.204    c1.125,0.644,1.819,1.842,1.819,3.138v28.359c0,1.297-0.694,2.494-1.819,3.138L33.798,63.522c-1.114,0.638-2.482,0.638-3.596,0    L5.408,49.318c-1.125-0.644-1.819-1.842-1.819-3.138V17.821C3.589,16.524,4.283,15.327,5.408,14.682z"/></g><path id="XMLID_1524_" fill="#3a3f99" d="M8.565,16.475L30.202,4.08c1.114-0.638,2.482-0.638,3.596,0l21.637,12.395   c1.125,0.644,1.819,1.842,1.819,3.138v24.742c0,1.297-0.694,2.494-1.819,3.138L33.798,59.889c-1.114,0.638-2.482,0.638-3.596,0   L8.565,47.494c-1.125-0.644-1.819-1.842-1.819-3.138V19.613C6.746,18.317,7.44,17.119,8.565,16.475z"/><g id="XMLID_1050_"><path id="XMLID_1523_" fill="#4c2080" d="M8.565,16.397L30.266,3.965c1.114-0.638,2.482-0.638,3.596,0l21.701,12.432    c1.125,0.644,1.819,1.842,1.819,3.138V44.35c0,1.297-0.694,2.494-1.819,3.138L33.862,59.92c-1.114,0.638-2.482,0.638-3.596,0    L8.565,47.489c-1.125-0.644-1.819-1.842-1.819-3.138V19.535C6.746,18.239,7.44,17.041,8.565,16.397z"/><path id="XMLID_1522_" fill="#4b2990" d="M57.381,38.343v6.322c0,1.102-0.59,2.119-1.546,2.667L33.592,60.075    c-0.946,0.542-2.109,0.542-3.056,0L8.292,47.332c-0.956-0.548-1.546-1.565-1.546-2.667v-5.599l2.842-1.151    c0.468-0.19,0.991-0.194,1.462-0.012l2.258,0.871c0.495,0.191,1.037,0.221,1.55,0.088l2.866-0.747    c0.333-0.087,0.681-0.1,1.02-0.037l5.286,1.271c0.291,0.054,0.589,0.062,0.882,0.026l7.517-1.341    c0.267-0.033,0.538-0.016,0.799,0.05l2.982,0.754c0.599,0.151,1.228,0.129,1.815-0.064l1.755-0.577    c0.422-0.139,0.874-0.155,1.305-0.047l2.76,0.691c0.599,0.15,1.227,0.144,1.824-0.017l3.695-1.001    c0.479-0.13,0.987-0.105,1.451,0.072l2.526,0.962c0.37,0.141,0.762,0.213,1.158,0.213L57.381,38.343z"/><path id="XMLID_1521_" fill="#3d1c6f" d="M57.381,39.79v4.561c0,1.297-0.694,2.494-1.819,3.138L33.862,59.92    c-1.114,0.638-2.482,0.638-3.596,0L8.565,47.489c-1.125-0.644-1.819-1.842-1.819-3.138V39.79l3.601-0.9    c0.487-0.122,0.994-0.141,1.488-0.056l4.658,0.798c0.608,0.104,1.232,0.078,1.829-0.078l4.267-0.641    c0.523-0.136,1.07-0.154,1.6-0.051l4.6,0.828c0.37,0.067,0.749,0.06,1.116-0.018l5.786-1.234c0.441-0.062,0.89-0.042,1.324,0.059    L40.43,39.6c0.383,0.124,0.793,0.139,1.183,0.043l3.275-0.801c0.545-0.091,1.104-0.056,1.633,0.103l2.535,0.673    c0.422,0.112,0.864,0.127,1.293,0.044l3.713-0.719c0.803-0.155,1.635-0.034,2.361,0.344L57.381,39.79z"/><circle id="XMLID_1520_" cx="45.129" cy="28.167" r=".543" fill="#dbdbdb"/><circle id="XMLID_1519_" cx="48.385" cy="19.125" r=".723" fill="#dbdbdb"/><circle id="XMLID_1518_" cx="12.578" cy="19.486" r=".723" fill="#dbdbdb"/><circle id="XMLID_1517_" cx="35.726" cy="8.274" r=".723" fill="#dbdbdb"/><circle id="XMLID_1516_" cx="9.685" cy="32.869" r=".362" fill="#dbdbdb"/><circle id="XMLID_1515_" cx="20.535" cy="27.805" r=".543" fill="#dbdbdb"/><circle id="XMLID_1514_" cx="53.086" cy="33.954" r=".362" fill="#dbdbdb"/><circle id="XMLID_1513_" cx="22.705" cy="11.529" r=".181" fill="#dbdbdb"/><path id="XMLID_1512_" fill="#2a1b54" d="M36.156,40.819H25.944c0,0,0-1.218,0-2.72v0c0,0,5.909,0,12.931,0v0    C38.875,39.601,37.658,40.819,36.156,40.819z"/><path id="XMLID_1511_" fill="#351662" d="M57.381,39.428v4.922c0,1.297-0.694,2.494-1.819,3.138L33.862,59.92    c-1.114,0.638-2.482,0.638-3.596,0L8.565,47.489c-1.125-0.644-1.819-1.842-1.819-3.138v-3.476l1.252-0.389    c0.736-0.441,1.629-0.533,2.439-0.251l2.407,0.535c0.313,0.07,0.636,0.079,0.953,0.028l5.259-0.848    c0.466-0.105,0.951-0.092,1.411,0.036l4.048,0.803c0.287,0.057,0.582,0.064,0.872,0.02l5.516-0.836    c0.561-0.119,1.144-0.069,1.676,0.144l2.139,0.58c0.433,0.117,0.889,0.117,1.322,0.001l2.121-0.573    c0.544-0.218,1.142-0.265,1.713-0.135l5.135,0.826c0.249,0.04,0.503,0.043,0.753,0.008l5.997-0.839    c0.636-0.125,1.297-0.033,1.874,0.262l0.643,0.209c0.81,0.263,1.698,0.101,2.363-0.432L57.381,39.428z"/><polygon id="XMLID_1510_" fill="#2a1b54" points="32.516 37.737 28.055 37.737 32.516 30.828"/><polygon id="XMLID_1509_" fill="#2a1b54" points="32.968 37.737 36.404 37.737 32.968 32.415"/><g id="XMLID_1171_"><circle id="XMLID_1508_" cx="32.064" cy="19.284" r="9.042" fill="#f2f2f2" opacity=".1"/><circle id="XMLID_1507_" cx="32.064" cy="19.284" r="7.75" fill="#f2f2f2" opacity=".2"/><circle id="XMLID_1506_" cx="32.064" cy="19.284" r="6.459" fill="#f2f2f2" opacity=".3"/><circle id="XMLID_1505_" cx="32.064" cy="19.341" r="4.822" fill="#f2f2f2"/><g id="XMLID_1309_"><circle id="XMLID_1504_" cx="35.078" cy="22.556" r=".301" fill="#ededed"/><path id="XMLID_1501_" fill="#dbdbdb" d="M35.078,22.255c-0.017,0-0.034,0.002-0.05,0.004c0.143,0.024,0.251,0.148,0.251,0.297      c0,0.149-0.109,0.273-0.251,0.297c0.016,0.003,0.033,0.004,0.05,0.004c0.166,0,0.301-0.135,0.301-0.301      S35.244,22.255,35.078,22.255z"/><circle id="XMLID_1500_" cx="35.881" cy="18.537" r=".301" fill="#ededed"/><path id="XMLID_1499_" fill="#dbdbdb" d="M35.881,18.236c-0.017,0-0.034,0.002-0.05,0.004c0.143,0.024,0.251,0.148,0.251,0.297      s-0.109,0.273-0.251,0.297c0.016,0.003,0.033,0.004,0.05,0.004c0.166,0,0.301-0.135,0.301-0.301S36.048,18.236,35.881,18.236z"/><g id="XMLID_1402_"><circle id="XMLID_1470_" cx="32.265" cy="19.542" r=".804" fill="#ededed"/><path id="XMLID_1469_" fill="#dbdbdb" d="M32.265,18.738c-0.046,0-0.09,0.004-0.134,0.011c0.38,0.064,0.67,0.394,0.67,0.792       s-0.29,0.729-0.67,0.792c0.044,0.007,0.088,0.011,0.134,0.011c0.444,0,0.804-0.36,0.804-0.804       C33.068,19.098,32.708,18.738,32.265,18.738z"/><circle id="XMLID_1468_" cx="29.853" cy="21.752" r=".603" fill="#ededed"/><path id="XMLID_1467_" fill="#dbdbdb" d="M29.853,21.15c-0.034,0-0.068,0.003-0.1,0.008c0.285,0.048,0.502,0.296,0.502,0.594       c0,0.299-0.217,0.546-0.502,0.594c0.033,0.005,0.066,0.008,0.1,0.008c0.333,0,0.603-0.27,0.603-0.603       C30.456,21.419,30.186,21.15,29.853,21.15z"/><circle id="XMLID_1466_" cx="33.068" cy="22.556" r=".402" fill="#ededed"/><path id="XMLID_1465_" fill="#dbdbdb" d="M33.068,22.154c-0.023,0-0.045,0.002-0.067,0.006c0.19,0.032,0.335,0.197,0.335,0.396       s-0.145,0.364-0.335,0.396c0.022,0.004,0.044,0.006,0.067,0.006c0.222,0,0.402-0.18,0.402-0.402S33.29,22.154,33.068,22.154z"/><circle id="XMLID_1464_" cx="32.265" cy="15.523" r=".402" fill="#ededed"/><path id="XMLID_1463_" fill="#dbdbdb" d="M32.265,15.121c-0.023,0-0.045,0.002-0.067,0.006c0.19,0.032,0.335,0.197,0.335,0.396       c0,0.199-0.145,0.364-0.335,0.396c0.022,0.004,0.044,0.006,0.067,0.006c0.222,0,0.402-0.18,0.402-0.402       C32.666,15.301,32.487,15.121,32.265,15.121z"/><circle id="XMLID_1462_" cx="33.872" cy="17.332" r=".402" fill="#ededed"/><path id="XMLID_1461_" fill="#dbdbdb" d="M33.872,16.93c-0.023,0-0.045,0.002-0.067,0.006c0.19,0.032,0.335,0.197,0.335,0.396       s-0.145,0.364-0.335,0.396c0.022,0.004,0.044,0.006,0.067,0.006c0.222,0,0.402-0.18,0.402-0.402S34.094,16.93,33.872,16.93z"/><circle id="XMLID_1460_" cx="34.274" cy="20.748" r=".301" fill="#ededed"/><path id="XMLID_1421_" fill="#dbdbdb" d="M34.274,20.446c-0.017,0-0.034,0.002-0.05,0.004c0.143,0.024,0.251,0.148,0.251,0.297       s-0.109,0.273-0.251,0.297c0.016,0.003,0.033,0.004,0.05,0.004c0.166,0,0.301-0.135,0.301-0.301S34.44,20.446,34.274,20.446z"/><circle id="XMLID_1420_" cx="28.648" cy="21.15" r=".201" fill="#ededed"/><path id="XMLID_1419_" fill="#dbdbdb" d="M28.648,20.949c-0.011,0-0.023,0.001-0.033,0.003c0.095,0.016,0.167,0.099,0.167,0.198       c0,0.1-0.072,0.182-0.167,0.198c0.011,0.002,0.022,0.003,0.033,0.003c0.111,0,0.201-0.09,0.201-0.201       S28.759,20.949,28.648,20.949z"/><circle id="XMLID_1407_" cx="29.251" cy="18.135" r=".402" fill="#ededed"/><path id="XMLID_1406_" fill="#dbdbdb" d="M29.251,17.734c-0.023,0-0.045,0.002-0.067,0.006c0.19,0.032,0.335,0.197,0.335,0.396       s-0.145,0.364-0.335,0.396c0.022,0.004,0.044,0.006,0.067,0.006c0.222,0,0.402-0.18,0.402-0.402       C29.652,17.914,29.473,17.734,29.251,17.734z"/><circle id="XMLID_1405_" cx="29.05" cy="16.93" r=".201" fill="#ededed"/><path id="XMLID_1404_" fill="#dbdbdb" d="M29.05,16.729c-0.011,0-0.023,0.001-0.033,0.003c0.095,0.016,0.167,0.099,0.167,0.198       c0,0.1-0.072,0.182-0.167,0.198c0.011,0.002,0.022,0.003,0.033,0.003c0.111,0,0.201-0.09,0.201-0.201       S29.161,16.729,29.05,16.729z"/></g><circle id="XMLID_1340_" cx="36.283" cy="19.14" r=".201" fill="#ededed"/><path id="XMLID_1338_" fill="#dbdbdb" d="M36.283,18.939c-0.011,0-0.023,0.001-0.033,0.003c0.095,0.016,0.167,0.099,0.167,0.198      c0,0.1-0.072,0.182-0.167,0.198c0.011,0.002,0.022,0.003,0.033,0.003c0.111,0,0.201-0.09,0.201-0.201      S36.394,18.939,36.283,18.939z"/><circle id="XMLID_1335_" cx="34.274" cy="15.925" r=".201" fill="#ededed"/><path id="XMLID_1334_" fill="#dbdbdb" d="M34.274,15.724c-0.011,0-0.023,0.001-0.033,0.003c0.095,0.016,0.167,0.099,0.167,0.198      s-0.072,0.182-0.167,0.198c0.011,0.002,0.022,0.003,0.033,0.003c0.111,0,0.201-0.09,0.201-0.201      C34.475,15.814,34.385,15.724,34.274,15.724z"/></g><path id="XMLID_1308_" fill="#cecece" d="M32.064,14.519c-0.274,0-0.542,0.024-0.804,0.068c2.281,0.383,4.019,2.365,4.019,4.754     s-1.738,4.372-4.019,4.754c0.262,0.044,0.53,0.068,0.804,0.068c2.663,0,4.822-2.159,4.822-4.822S34.727,14.519,32.064,14.519z" opacity=".25"/></g></g></g></svg>