<svg xmlns="http://www.w3.org/2000/svg" id="Layer_1" enable-background="new 0 0 64 64" viewBox="0 0 64 64"><g id="XMLID_1048_"><g id="XMLID_1639_"><path id="XMLID_1841_" fill="#fff" d="M5.408,14.682L30.202,0.478c1.114-0.638,2.482-0.638,3.596,0l24.794,14.204    c1.125,0.644,1.819,1.842,1.819,3.138v28.359c0,1.297-0.694,2.494-1.819,3.138L33.798,63.522c-1.114,0.638-2.482,0.638-3.596,0    L5.408,49.318c-1.125-0.644-1.819-1.842-1.819-3.138V17.821C3.589,16.524,4.283,15.327,5.408,14.682z"/></g><path id="XMLID_1638_" fill="#3a3f99" d="M8.565,16.491L30.202,4.095c1.114-0.638,2.482-0.638,3.596,0l21.637,12.395   c1.125,0.644,1.819,1.842,1.819,3.138v24.742c0,1.297-0.694,2.494-1.819,3.138L33.798,59.905c-1.114,0.638-2.482,0.638-3.596,0   L8.565,47.509c-1.125-0.644-1.819-1.842-1.819-3.138V19.629C6.746,18.332,7.44,17.135,8.565,16.491z"/><g id="XMLID_1625_"><path id="XMLID_1637_" fill="#4aafce" d="M8.507,16.422l21.71-12.437c1.117-0.64,2.49-0.64,3.608,0l21.71,12.437    c1.129,0.647,1.825,1.848,1.825,3.149v24.825c0,1.301-0.696,2.502-1.825,3.149l-21.71,12.437c-1.117,0.64-2.49,0.64-3.608,0    L8.507,47.544c-1.129-0.647-1.825-1.848-1.825-3.149V19.571C6.682,18.27,7.379,17.069,8.507,16.422z"/><g id="XMLID_1631_"><circle id="XMLID_1636_" cx="31.351" cy="32.832" r="17.058" fill="#ffcf68" opacity=".2"/><circle id="XMLID_1635_" cx="31.351" cy="32.832" r="14.621" fill="#ffcf68" opacity=".3"/><circle id="XMLID_1634_" cx="31.351" cy="32.832" r="12.184" fill="#ffcf68" opacity=".4"/><circle id="XMLID_1633_" cx="31.351" cy="32.832" r="9.098" fill="#ffcf68"/><path id="XMLID_1632_" fill="#ffc255" d="M31.351,23.734c-0.517,0-1.023,0.045-1.516,0.128c4.302,0.722,7.581,4.462,7.581,8.969     s-3.279,8.247-7.581,8.969c0.493,0.083,0.999,0.128,1.516,0.128c5.024,0,9.098-4.073,9.098-9.097S36.376,23.734,31.351,23.734z"/></g><path id="XMLID_1630_" fill="#5e646d" d="M50.356,27.476l-6.031,6.036l-3.416-3.419c-0.71-0.71-1.86-0.71-2.57,0l-8.819,8.82    l-5.245-5.246c-0.71-0.71-1.861-0.71-2.571,0l-2.662,2.662l-6.236-6.236c-0.71-0.71-1.666-0.71-2.376,0L7,33.716v10.679    c0,1.301,0.537,2.502,1.666,3.149l21.63,12.437c1.117,0.64,2.451,0.64,3.568,0l21.51-12.437C56.503,46.898,57,45.696,57,44.395    V31.934l-4.261-4.459C52.029,26.765,51.066,26.765,50.356,27.476z"/><path id="XMLID_1629_" fill="#f2f2f2" d="M9.251,35.452c0.321-0.315,0.848-0.266,1.105,0.102l1.037,1.484    c0.288,0.412,0.898,0.414,1.189,0.004l1.123-1.584c0.236-0.333,0.701-0.406,1.028-0.162l0.911,0.679    c0.29,0.216,0.694,0.187,0.949-0.069l1.04-1.04l-4.83-4.83c-0.71-0.71-1.825-0.71-2.535,0L6.682,33.66v2.977l0.129,0.144    c0.277,0.309,0.755,0.325,1.051,0.034L9.251,35.452z"/><path id="XMLID_1628_" fill="#f2f2f2" d="M34.731,33.643l1.482,1.656c0.193,0.216,0.528,0.227,0.735,0.024l0.971-0.953    c0.224-0.22,0.593-0.186,0.773,0.072l0.725,1.037c0.202,0.288,0.628,0.29,0.831,0.003l0.785-1.107    c0.165-0.233,0.49-0.284,0.719-0.113l0.637,0.475c0.202,0.151,0.485,0.13,0.664-0.048l1.252-1.252l-3.397-3.399    c-0.71-0.71-1.86-0.71-2.57,0L34.731,33.643z"/><path id="XMLID_1627_" fill="#f2f2f2" d="M57,31.877l-4.261-4.459c-0.71-0.71-1.763-0.71-2.473,0l-5.573,5.622l2.065,2.282    c0.287,0.321,0.796,0.337,1.103,0.035l1.448-1.415c0.333-0.327,0.883-0.276,1.151,0.106l1.079,1.541    c0.299,0.428,0.934,0.43,1.236,0.004l1.167-1.645c0.245-0.346,0.728-0.422,1.068-0.169l0.946,0.706    c0.301,0.224,0.541,0.194,0.806-0.071L57,33.998V31.877z"/><path id="XMLID_1626_" fill="#f2f2f2" d="M19.767,37.245c0.148,0.22,0.45,0.272,0.664,0.114l1.001-0.742    c0.231-0.171,0.561-0.094,0.692,0.162l0.527,1.032c0.146,0.287,0.533,0.342,0.754,0.107l0.852-0.905    c0.179-0.19,0.48-0.196,0.666-0.012l0.518,0.511c0.165,0.162,0.423,0.179,0.608,0.04l1.234-0.933l-3.009-3.01    c-0.71-0.71-1.861-0.71-2.571,0l-2.618,2.618L19.767,37.245z"/></g></g></svg>